<svg width="24" height="24" viewBox="0 0 24 24" fill="none" xmlns="http://www.w3.org/2000/svg">
<path d="M18.5 11.5H12.5V5.5C12.5 5.36739 12.4473 5.24021 12.3536 5.14645C12.2598 5.05268 12.1326 5 12 5C11.8674 5 11.7402 5.05268 11.6464 5.14645C11.5527 5.24021 11.5 5.36739 11.5 5.5V11.5H5.5C5.36739 11.5 5.24021 11.5527 5.14645 11.6464C5.05268 11.7402 5 11.8674 5 12C5 12.1326 5.05268 12.2598 5.14645 12.3536C5.24021 12.4473 5.36739 12.5 5.5 12.5H11.5V18.5C11.5 18.6326 11.5527 18.7598 11.6464 18.8536C11.7402 18.9473 11.8674 19 12 19C12.1326 19 12.2598 18.9473 12.3536 18.8536C12.4473 18.7598 12.5 18.6326 12.5 18.5V12.5H18.5C18.6326 12.5 18.7598 12.4473 18.8536 12.3536C18.9473 12.2598 19 12.1326 19 12C19 11.8674 18.9473 11.7402 18.8536 11.6464C18.7598 11.5527 18.6326 11.5 18.5 11.5Z" fill="#292929"/>
</svg>
