<svg width="800" height="450" viewBox="0 0 800 450" preserveAspectRatio="xMinYMin slice" fill="none" xmlns="http://www.w3.org/2000/svg">
<rect width="800" height="450" fill="#757575"/>
<path d="M310.737 450C306.865 448.73 304.337 445.76 301.377 443.159C295.24 437.766 288.591 432.946 282.053 428.024C273.274 421.416 264.173 415.219 255.64 408.313C247.993 402.123 242.514 393.934 237.274 385.664C235.586 383.209 234.463 380.409 233.985 377.468C233.506 374.526 233.685 371.515 234.507 368.65C236.057 363.414 238.297 358.377 240.305 353.282C242.24 348.374 244.583 343.605 246.202 338.601C252.272 319.841 258.591 301.14 263.874 282.149C267.012 270.875 270.062 259.626 274.056 248.615C275.422 244.847 275.659 240.684 276.638 236.758C279.431 225.559 285.877 217.852 297.255 214.313C310.025 210.345 322.622 205.832 335.297 201.581C345.522 198.153 354.266 192.269 362.215 185.153C368.217 179.779 370.172 172.783 367.7 165.322C366.009 160.22 363.623 154.724 359.921 151.045C352.311 143.484 350.823 134.365 350.506 124.559C350.303 118.245 350.409 111.911 350.049 105.612C349.466 95.479 349.503 85.5534 353.786 75.9687C359.434 63.331 369.521 55.9631 382.158 52.126C395.271 47.9387 409.449 48.604 422.113 54.0006C434.732 59.3608 443.272 68.1853 445.198 82.4925C446.747 94.0051 449.16 105.41 450.472 116.944C451.07 123.447 450.984 129.995 450.214 136.479C449.948 139.238 448.085 142.118 446.267 144.391C441.268 150.622 438.93 157.887 437.702 165.505C436.542 172.709 439.575 178.544 445.264 182.889C453.848 189.627 463.313 195.159 473.394 199.329C481.281 202.486 488.957 206.18 496.741 209.581C500.256 211.116 503.841 212.488 507.37 213.995C511.181 215.622 515.049 217.15 518.74 219.021C521.749 220.467 524.398 222.567 526.495 225.167C528.591 227.767 530.081 230.803 530.858 234.052C532.558 240.684 534.316 247.3 536.057 253.92C536.77 256.63 537.347 259.389 538.259 262.032C547.215 288.6 554.321 315.757 559.526 343.308C561.388 352.775 563.493 362.196 565.604 371.611C567.144 378.376 566.019 385.474 562.463 391.429C557.103 400.979 549.477 409.061 540.259 414.964C529.037 422.247 517.967 429.768 506.934 437.332C504.789 438.789 502.934 440.631 501.461 442.765C499.178 446.172 496.524 448.847 492.519 449.993L310.737 450Z" fill="#4F4F4F"/>
<path d="M90 32H32V40H90V32Z" fill="#C0C0C0"/>
<path opacity="0.996" d="M134 32H98V40H134V32Z" fill="#C0C0C0"/>
</svg>
