<?xml version="1.0" standalone="no"?>
<!DOCTYPE svg PUBLIC "-//W3C//DTD SVG 20010904//EN"
 "http://www.w3.org/TR/2001/REC-SVG-20010904/DTD/svg10.dtd">
<svg version="1.0" xmlns="http://www.w3.org/2000/svg"
 width="1024.000000pt" height="1024.000000pt" viewBox="0 0 1024.000000 1024.000000"
 preserveAspectRatio="xMidYMid meet">
<metadata>
</metadata>
<g transform="translate(0.000000,1024.000000) scale(0.100000,-0.100000)"
fill="#000000" stroke="none">
<path d="M0 5120 l0 -5120 5120 0 5120 0 0 5120 0 5120 -5120 0 -5120 0 0
-5120z m3848 2842 c10 -7 12 -263 9 -1338 -4 -1413 -1 -1318 -47 -1509 -5 -22
-12 -53 -16 -70 -10 -48 -88 -207 -133 -274 -118 -174 -283 -278 -518 -327
-91 -19 -381 -18 -488 1 -81 14 -173 39 -210 55 -11 5 -42 18 -69 29 -119 51
-356 200 -356 225 0 14 97 203 145 283 l31 52 45 -35 c24 -19 52 -41 62 -49 9
-8 20 -15 23 -15 3 0 18 -8 32 -19 58 -40 216 -115 262 -124 14 -3 51 -12 83
-21 71 -20 239 -21 317 -2 176 42 321 197 371 396 39 155 39 137 39 1462 0
1012 3 1277 13 1281 21 9 391 7 405 -1z m952 -27 c11 -48 27 -125 40 -190 6
-33 16 -78 20 -100 5 -22 14 -62 19 -90 14 -70 50 -242 62 -292 5 -24 13 -62
18 -85 5 -24 14 -64 20 -90 24 -104 30 -135 41 -198 13 -73 20 -106 50 -235
25 -108 35 -152 49 -225 34 -176 88 -430 102 -475 4 -16 15 -68 24 -115 8 -47
19 -103 24 -125 5 -22 18 -85 30 -140 18 -81 51 -252 51 -262 0 -2 8 -3 18 -3
18 0 37 52 103 280 11 41 39 131 60 200 22 69 43 141 49 160 5 19 35 116 66
215 31 99 67 218 81 265 13 47 37 123 53 170 15 47 47 148 70 225 23 77 45
149 50 160 4 11 18 54 30 95 33 114 38 129 64 210 13 41 36 116 50 165 15 50
31 101 36 115 4 14 18 59 30 100 12 41 27 93 34 115 l13 40 185 3 185 2 53
-187 c28 -104 58 -207 66 -230 7 -23 23 -77 35 -120 33 -123 36 -134 59 -208
12 -38 30 -101 41 -140 11 -38 29 -101 40 -140 11 -38 28 -99 38 -135 10 -36
40 -135 65 -220 41 -138 132 -448 172 -585 7 -27 47 -164 87 -304 40 -140 78
-256 85 -259 15 -5 30 34 48 128 8 41 19 93 24 115 9 44 25 111 40 178 5 23
21 89 34 147 14 58 30 125 35 150 5 25 19 88 31 140 12 52 35 160 52 240 17
80 34 161 39 180 4 19 12 53 18 75 5 22 14 60 20 85 6 25 20 88 31 140 11 52
25 115 30 140 6 25 15 70 21 100 20 101 25 122 69 310 29 124 56 247 75 340
29 148 39 185 49 192 14 10 424 10 429 1 3 -5 -5 -48 -18 -98 -26 -105 -120
-492 -140 -580 -14 -59 -33 -140 -135 -560 -28 -115 -65 -266 -81 -335 -17
-69 -34 -141 -39 -160 -6 -19 -19 -75 -31 -125 -19 -83 -58 -241 -250 -1025
-79 -321 -90 -368 -118 -496 -11 -50 -23 -98 -27 -107 -5 -15 -27 -17 -193
-17 l-187 0 -23 83 c-13 45 -32 111 -42 147 -35 119 -178 624 -193 680 -8 30
-33 118 -56 195 -23 77 -47 163 -55 190 -64 230 -88 316 -119 421 -19 66 -48
170 -64 230 -17 60 -56 197 -87 304 -32 107 -68 233 -80 278 -33 119 -49 130
-73 47 -7 -22 -27 -89 -46 -150 -19 -60 -49 -157 -66 -215 -18 -58 -42 -136
-55 -175 -13 -38 -46 -142 -73 -230 -99 -314 -254 -802 -292 -920 -21 -66 -61
-194 -90 -285 -28 -91 -55 -176 -60 -190 -5 -14 -23 -72 -40 -130 -34 -111
-65 -207 -82 -252 l-10 -28 -179 0 c-209 0 -184 -16 -219 145 -12 55 -33 145
-47 200 -24 96 -35 146 -82 370 -11 55 -30 141 -42 190 -12 50 -30 127 -40
173 -10 45 -28 119 -38 165 -19 80 -40 174 -82 367 -12 52 -25 113 -31 135 -5
22 -13 58 -18 80 -5 22 -13 58 -18 80 -6 22 -15 60 -20 85 -6 25 -20 88 -31
140 -12 52 -31 138 -42 190 -21 98 -43 193 -59 245 -5 17 -16 66 -26 110 -9
44 -20 96 -24 115 -4 19 -11 51 -15 70 -3 19 -10 51 -15 70 -5 19 -18 78 -30
130 -12 52 -28 123 -36 158 -7 34 -21 92 -29 130 -9 37 -20 84 -26 105 -5 20
-7 42 -4 47 4 7 90 9 233 8 l226 -3 6 -30z m-1400 -4985 c0 -545 3 -690 13
-691 6 -1 17 -2 22 -4 6 -1 162 -3 348 -3 l337 -2 0 -75 0 -75 -322 -2 c-336
-3 -569 0 -576 6 -6 7 -15 1503 -9 1520 5 13 22 16 97 16 l90 0 0 -690z m1130
-80 l0 -770 -90 0 -90 0 0 770 0 770 90 0 90 0 0 -770z m1300 690 l0 -80 -372
-2 -373 -3 -3 -276 -2 -276 106 -6 c59 -4 201 -7 316 -7 l208 0 0 -75 0 -75
-284 0 c-156 0 -298 -3 -315 -6 l-31 -6 0 -323 0 -322 -80 -6 c-44 -4 -87 -4
-95 -1 -13 5 -15 101 -15 775 l0 769 470 0 470 0 0 -80z m1170 0 l0 -80 -369
0 c-327 0 -370 -2 -375 -16 -3 -9 -6 -123 -6 -254 0 -195 3 -240 14 -250 11
-8 96 -11 323 -9 l308 2 3 -76 3 -77 -320 0 -321 0 -5 -23 c-4 -13 -4 -132 -2
-266 3 -196 6 -244 18 -252 8 -5 179 -9 382 -9 l367 0 0 -75 0 -75 -475 0
-475 0 0 770 0 770 465 0 465 0 0 -80z"/>
</g>
</svg>
