<?xml version="1.0" standalone="no"?>
<!DOCTYPE svg PUBLIC "-//W3C//DTD SVG 20010904//EN"
 "http://www.w3.org/TR/2001/REC-SVG-20010904/DTD/svg10.dtd">
<svg version="1.0" xmlns="http://www.w3.org/2000/svg"
 width="1024.000000pt" height="1024.000000pt" viewBox="0 0 1024.000000 1024.000000"
 preserveAspectRatio="xMidYMid meet">
<metadata>
Created by potrace 1.16, written by Peter Selinger 2001-2019
</metadata>
<g transform="translate(0.000000,1024.000000) scale(0.100000,-0.100000)"
fill="#000000" stroke="none">
<path d="M0 5120 l0 -5120 5118 2 5117 3 3 5118 2 5117 -5120 0 -5120 0 0
-5120z m3870 1563 c0 -874 -4 -1317 -11 -1378 -46 -376 -218 -665 -471 -789
-171 -84 -391 -119 -622 -98 -197 18 -295 46 -468 131 -107 53 -304 182 -301
197 1 8 182 345 188 352 1 2 47 -27 101 -64 145 -98 299 -170 414 -194 373
-77 612 79 698 455 14 62 16 223 19 1373 l4 1302 224 0 225 0 0 -1287z m967
1134 c549 -2602 527 -2497 533 -2497 3 0 178 566 390 1258 l385 1257 195 0
194 0 57 -195 c31 -107 195 -670 364 -1250 168 -580 309 -1062 312 -1070 4
-10 8 -5 13 15 9 37 506 2274 552 2483 l33 152 237 0 c186 0 236 -3 233 -12
-4 -12 -143 -583 -656 -2693 -99 -407 -184 -757 -190 -777 l-10 -38 -199 0
-199 0 -11 38 c-5 20 -174 611 -374 1312 l-364 1275 -43 -135 c-23 -74 -210
-664 -414 -1310 l-371 -1175 -196 -3 c-181 -2 -197 -1 -202 15 -3 10 -42 180
-86 378 -232 1030 -701 3102 -705 3113 -3 9 49 12 243 12 l247 0 32 -153z
m1120 -4289 c5 -7 56 -141 113 -298 57 -157 160 -442 230 -633 l128 -348 -92
3 -91 3 -66 185 -67 185 -239 3 -239 2 -66 -187 -66 -188 -86 -3 c-47 -1 -86
-1 -86 2 0 6 461 1269 467 1279 8 13 150 8 160 -5z m-3877 -563 l0 -565 290 0
290 0 0 -75 0 -75 -375 0 -375 0 0 640 0 640 85 0 85 0 0 -565z m920 -75 l0
-640 -90 0 -90 0 0 640 0 640 90 0 90 0 0 -640z m795 626 c105 -28 183 -86
229 -171 18 -34 21 -57 21 -145 0 -89 -3 -111 -22 -146 -24 -45 -88 -111 -115
-120 -28 -9 -22 -17 37 -48 93 -48 150 -131 165 -239 21 -149 -44 -273 -179
-342 -93 -47 -155 -55 -428 -55 l-253 0 0 640 0 640 248 0 c174 0 262 -4 297
-14z m1078 -1 c124 -32 216 -105 263 -208 24 -53 28 -75 28 -152 0 -76 -4 -99
-25 -145 -45 -97 -103 -149 -214 -195 l-53 -21 174 -270 173 -269 -102 -3
c-56 -1 -103 1 -105 5 -1 4 -75 122 -163 261 l-160 252 -115 0 -114 0 0 -260
0 -260 -85 0 -85 0 0 640 0 640 263 0 c201 0 276 -4 320 -15z m2252 0 c127
-33 209 -95 257 -193 31 -62 33 -74 33 -167 0 -89 -3 -106 -28 -157 -37 -76
-120 -151 -197 -179 -33 -12 -60 -24 -60 -26 0 -2 77 -123 170 -269 94 -145
170 -266 170 -269 0 -3 -45 -5 -99 -5 l-99 0 -164 260 -163 259 -112 1 -113 0
0 -260 0 -260 -85 0 -85 0 0 640 0 640 258 0 c200 0 271 -3 317 -15z m620
-122 c44 -76 120 -209 170 -295 l91 -156 170 294 169 294 98 0 99 0 -20 -32
c-11 -18 -113 -189 -226 -380 l-206 -348 0 -260 0 -260 -85 0 -85 0 0 257 0
256 -222 376 c-121 207 -223 379 -225 384 -2 4 40 7 94 7 l99 0 79 -137z"/>
<path d="M5779 3048 c-46 -133 -85 -248 -87 -255 -3 -10 35 -13 177 -13 100 0
181 2 181 4 0 12 -173 492 -179 499 -4 4 -45 -102 -92 -235z"/>
<path d="M3412 3178 l3 -203 140 1 c151 0 198 10 254 52 77 58 94 195 33 271
-56 69 -77 76 -265 79 l-167 4 2 -204z"/>
<path d="M3410 2616 l0 -216 158 0 c177 0 233 11 299 59 53 38 77 99 71 175
-6 77 -41 127 -115 162 -55 27 -66 28 -235 32 l-178 4 0 -216z"/>
<path d="M4460 3149 l0 -231 173 4 c154 3 178 6 225 27 28 13 65 39 82 57 77
89 61 247 -33 315 -66 48 -123 59 -294 59 l-153 0 0 -231z"/>
<path d="M6720 3151 l0 -231 143 0 c271 0 367 55 375 215 5 83 -15 134 -69
179 -62 52 -91 59 -276 64 l-173 4 0 -231z"/>
</g>
</svg>
