<?xml version="1.0" standalone="no"?>
<!DOCTYPE svg PUBLIC "-//W3C//DTD SVG 20010904//EN"
 "http://www.w3.org/TR/2001/REC-SVG-20010904/DTD/svg10.dtd">
<svg version="1.0" xmlns="http://www.w3.org/2000/svg"
 width="1024.000000pt" height="1024.000000pt" viewBox="0 0 1024.000000 1024.000000"
 preserveAspectRatio="xMidYMid meet">

<g transform="translate(0.000000,1024.000000) scale(0.100000,-0.100000)"
fill="#000000" stroke="none">
<path d="M0 5120 l0 -5120 5120 0 5120 0 0 5120 0 5120 -5120 0 -5120 0 0
-5120z m3867 1528 c-3 -1451 0 -1367 -63 -1586 -68 -235 -218 -438 -393 -531
-143 -76 -252 -101 -466 -108 -272 -8 -427 23 -636 127 -103 51 -291 168 -304
190 -4 7 165 331 182 350 2 2 10 0 17 -5 169 -121 346 -214 470 -245 109 -28
279 -28 368 0 172 53 289 189 351 408 l21 77 3 1323 3 1322 226 0 225 0 -4
-1322z m938 1300 c3 -13 98 -462 211 -998 329 -1562 344 -1633 348 -1638 3 -2
9 5 14 15 7 14 600 1938 737 2393 l31 105 193 0 193 0 38 -130 c186 -638 504
-1732 555 -1905 34 -118 80 -275 101 -347 21 -73 41 -133 45 -133 10 0 108
430 484 2135 58 263 108 490 111 502 l6 23 229 0 c126 0 229 -2 229 -5 0 -3
-63 -262 -139 -577 -323 -1326 -566 -2323 -638 -2621 l-77 -317 -195 2 -195 3
-373 1304 c-205 717 -375 1306 -378 1309 -3 3 -7 3 -9 1 -3 -4 -171 -535 -662
-2094 -85 -269 -157 -498 -160 -507 -5 -16 -23 -18 -199 -18 l-193 0 -7 38
c-4 20 -31 143 -60 272 -101 440 -725 3200 -725 3205 0 3 108 5 240 5 l240 0
5 -22z m-1495 -5273 l0 -735 378 -2 377 -3 0 -95 0 -95 -482 -3 -483 -2 0 835
0 835 105 0 105 0 0 -735z m1185 -100 l0 -830 -107 -3 -108 -3 0 836 0 836
108 -3 107 -3 0 -830z m1313 723 l3 -98 -391 0 -390 0 0 -265 0 -266 388 1
387 2 0 -94 0 -93 -387 -3 -388 -2 0 -375 0 -375 -110 0 -110 0 0 828 c0 456
3 832 7 835 3 4 227 6 497 5 l491 -3 3 -97z m1332 2 l0 -100 -390 0 -390 0 2
-262 3 -263 388 0 387 0 0 -97 0 -98 -390 0 -390 0 0 -275 0 -275 390 0 390 0
0 -100 0 -100 -495 0 -495 0 0 835 0 835 495 0 495 0 0 -100z"/>
</g>
</svg>
