<?xml version="1.0" encoding="UTF-8"?>
<svg id="Calque_1" xmlns="http://www.w3.org/2000/svg" version="1.1" viewBox="0 0 1024 1024">
  <!-- Generator: Adobe Illustrator 29.0.1, SVG Export Plug-In . SVG Version: 2.1.0 Build 192)  -->
  <path d="M0,0v1024l511.8-.2,511.7-.3.3-511.8.2-511.7H0ZM392.1,350.2c0,87.4-.4,131.7-1.1,137.8-4.6,37.6-21.8,66.5-47.1,78.9-17.1,8.4-39.1,11.9-62.2,9.8-19.7-1.8-29.5-4.6-46.8-13.1-10.7-5.3-30.4-18.2-30.1-19.7.1-.8,18.2-34.5,18.8-35.2.1-.2,4.7,2.7,10.1,6.4,14.5,9.8,29.9,17,41.4,19.4,37.3,7.7,61.2-7.9,69.8-45.5,1.4-6.2,1.6-22.3,1.9-137.3l.4-130.2h44.9v128.7ZM429.7,897h-113.2v-193.2h25.7v170.5h87.5v22.6ZM481,897h-27.2v-193.2h27.2v193.2ZM555.5,573l-19.6.3c-18.1.2-19.7.1-20.2-1.5-.3-1-4.2-18-8.6-37.8-23.2-103-70.1-310.2-70.5-311.3-.3-.9,4.9-1.2,24.3-1.2h24.7l3.2,15.3c54.9,260.2,52.7,249.7,53.3,249.7s17.8-56.6,39-125.8l38.5-125.7h38.9l5.7,19.5c3.1,10.7,19.5,67,36.4,125,16.8,58,30.9,106.2,31.2,107,.4,1,.8.5,1.3-1.5.9-3.7,50.6-227.4,55.2-248.3l3.3-15.2h23.7c18.6,0,23.6.3,23.3,1.2-.3.9-14.3,58.3-65.6,269.3-9.9,40.7-18.4,75.7-19,77.7l-1,3.8h-39.8l-1.1-3.8c-.5-2-17.4-61.1-37.4-131.2l-36.4-127.5-4.3,13.5c-2.3,7.4-21,66.4-41.4,131l-37.1,117.5ZM617.9,790.5v21.7l-86,.9v83.9h-27.2v-193.2h25.8c.9,0,86.3-1.1,87.2-1.4l.2,24h-86v64h86ZM757.9,895.8h-115.4v-193.2h25.8c29.1-.5,58.1-.9,87.2-1.4v24h-85.9v64h86v21.7l-86,.9v59.9c0,19.9,66.6,2.3,88.3,2.3,0,0,.2,0,0,21.7Z"/>
  <path d="M561.3,820.4"/>
</svg>